<?xml version="1.0" encoding="utf-8"?>
<!-- Generator: Adobe Illustrator 27.0.0, SVG Export Plug-In . SVG Version: 6.00 Build 0)  -->
<svg version="1.1" id="Layer_1" xmlns="http://www.w3.org/2000/svg" xmlns:xlink="http://www.w3.org/1999/xlink" x="0px" y="0px"
	 viewBox="0 0 800 800" style="enable-background:new 0 0 800 800;" xml:space="preserve">
<style type="text/css">
	.st0{fill:#377DF7;}
	.st1{fill:none;}
</style>
<path class="st0" d="M683.4,200.9V200h-0.7c-119.3-146.9-335.1-169.3-482-50.1c-18.4,14.9-35.1,31.7-50.1,50.1H150v0.9
	C47.9,326.6,47.9,506.7,150,632.4v0.9h0.7c119.3,146.9,335.1,169.3,482,50.1c18.4-14.9,35.1-31.7,50.1-50.1h0.7v-0.9
	C785.6,506.7,785.6,326.6,683.4,200.9L683.4,200.9z M433.3,200v-90.9c40,16.8,70.8,49.9,84.7,90.9H433.3z M531.2,233.3
	c17.8,53.8,27.4,110,28.4,166.7H433.3V233.3H531.2z M400,109.1V200h-84.7C329.2,159,360,125.8,400,109.1z M400,233.3V400H273.7
	c1-56.7,10.6-112.9,28.4-166.7H400z M240.4,400H107.5c3.2-60.2,23.9-118.2,59.7-166.7h99.5C250.1,287.4,241.3,343.5,240.4,400
	L240.4,400z M240.4,433.3c0.9,56.5,9.7,112.6,26.3,166.7h-99.5c-35.8-48.5-56.6-106.5-59.7-166.7H240.4z M273.8,433.3H400V600h-97.8
	C284.3,546.2,274.7,490,273.8,433.3L273.8,433.3z M400,633.3v90.9c-40-16.8-70.8-49.9-84.7-90.9H400z M433.3,724.3v-90.9H518
	C504.1,674.4,473.3,707.5,433.3,724.3z M433.3,600V433.3h126.3c-1,56.7-10.6,112.9-28.4,166.7H433.3z M592.9,433.3h132.9
	c-3.2,60.2-23.9,118.2-59.7,166.7h-99.5C583.2,546,592.1,489.9,592.9,433.3L592.9,433.3z M592.9,400c-0.9-56.5-9.7-112.6-26.3-166.7
	h99.5c35.8,48.5,56.6,106.5,59.7,166.7H592.9z M638,200h-83.4c-11.5-29.1-27.7-56.1-48-79.9C556.4,135.3,601.6,162.7,638,200z
	 M326.8,120.1c-20.3,23.8-36.5,50.8-48,79.9h-83.4C231.7,162.7,276.9,135.3,326.8,120.1L326.8,120.1z M195.4,633.3h83.4
	c11.5,29.1,27.7,56.1,48,79.9C277,698.1,231.8,670.6,195.4,633.3z M506.6,713.3c20.3-23.8,36.5-50.8,48-79.9H638
	C601.6,670.6,556.4,698.1,506.6,713.3z"/>
<path class="st1" d="M0,0h800v800H0V0z"/>
</svg>
