<?xml version="1.0" encoding="utf-8"?>
<!-- Generator: Adobe Illustrator 27.0.0, SVG Export Plug-In . SVG Version: 6.00 Build 0)  -->
<svg version="1.1" id="Ñëîé_1" xmlns="http://www.w3.org/2000/svg" xmlns:xlink="http://www.w3.org/1999/xlink" x="0px" y="0px"
	 viewBox="0 0 600 450" style="enable-background:new 0 0 600 450;" xml:space="preserve">
<style type="text/css">
	.st0{fill:url(#SVGID_1_);}
	.st1{fill:url(#SVGID_00000124136014819645199270000014616100388328830649_);}
	.st2{fill:url(#SVGID_00000150061071481214788680000010220649595270421894_);}
	.st3{fill:url(#SVGID_00000093150874652461015190000007318063756473213853_);}
	.st4{opacity:0.6;fill:#020230;enable-background:new    ;}
	.st5{fill:url(#SVGID_00000071561085536943576020000005106893728044457107_);}
	.st6{fill:url(#SVGID_00000081631308496303073450000010491400561065298587_);}
	.st7{fill:url(#SVGID_00000115504801289646345560000004413636373898980012_);}
	.st8{fill:url(#SVGID_00000064354669946959211690000012737614022273826964_);}
	.st9{fill:#FFFFFF;}
	.st10{opacity:0.4;}
	.st11{fill:#06033E;}
	.st12{fill:url(#SVGID_00000176006554807107130300000001633581932650892729_);}
	.st13{fill:url(#SVGID_00000067201936400411795250000009460307640794152893_);}
	.st14{opacity:0.4;fill:#06033E;enable-background:new    ;}
	.st15{opacity:0.5;fill:#06033E;enable-background:new    ;}
	.st16{fill:url(#SVGID_00000085929110688979337420000006761753005045807028_);}
	.st17{opacity:0.5;}
	.st18{fill:#E8975B;}
	.st19{fill:#F8359E;}
	.st20{fill:url(#SVGID_00000106110196324972805740000014165688405416503471_);}
	.st21{fill:url(#SVGID_00000160189102379081967600000000945865795340864695_);}
	.st22{fill:url(#SVGID_00000132801563041369014280000014741176987895210112_);}
	.st23{fill:url(#SVGID_00000136391950032850738990000008514457542162384822_);}
	.st24{fill:url(#SVGID_00000144304215009423459900000017925431724602927253_);}
	.st25{fill:url(#SVGID_00000157299732133865994480000002677804524210312838_);}
	.st26{fill:url(#SVGID_00000108303951814471280670000001006896963739077549_);}
	.st27{fill:#0C0A78;}
	.st28{fill:url(#SVGID_00000146497067955888009360000007137583705782168195_);}
	.st29{opacity:0.5;fill:#FFFFFF;enable-background:new    ;}
</style>
<radialGradient id="SVGID_1_" cx="96.2053" cy="330.8334" r="733.4801" gradientTransform="matrix(1.5537 0 0 -1.088 -169.5759 257.8067)" gradientUnits="userSpaceOnUse">
	<stop  offset="3.968250e-03" style="stop-color:#4C02F1"/>
	<stop  offset="8.168010e-03" style="stop-color:#4B02EF"/>
	<stop  offset="0.1263" style="stop-color:#3903C4"/>
	<stop  offset="0.2487" style="stop-color:#29039E"/>
	<stop  offset="0.3765" style="stop-color:#1D0380"/>
	<stop  offset="0.5099" style="stop-color:#130468"/>
	<stop  offset="0.6513" style="stop-color:#0C0457"/>
	<stop  offset="0.8062" style="stop-color:#07044D"/>
	<stop  offset="1" style="stop-color:#06044A"/>
</radialGradient>
<rect x="-114.8" class="st0" width="858.6" height="450"/>
<linearGradient id="SVGID_00000142873484099221190680000007298404239238069912_" gradientUnits="userSpaceOnUse" x1="145.192" y1="174.0033" x2="184.9266" y2="174.0033" gradientTransform="matrix(1 0 0 -1 0 452)">
	<stop  offset="0" style="stop-color:#E39A65"/>
	<stop  offset="1" style="stop-color:#E95F8D"/>
</linearGradient>
<path style="fill:url(#SVGID_00000142873484099221190680000007298404239238069912_);" d="M165.1,288.9c-1.4,0-2.8-0.3-4.1-1l-14.6-8
	c-0.7-0.4-1.1-1.1-1.1-1.8s0.4-1.4,1.1-1.8l14.6-8c2.5-1.4,5.7-1.4,8.2,0l14.6,8c0.7,0.4,1.1,1.1,1.1,1.8c0,0.8-0.4,1.4-1.1,1.8
	l-14.6,8C167.9,288.6,166.5,288.9,165.1,288.9z M165.1,268.4c-1.2,0-2.4,0.3-3.4,0.9l-14.6,8c-0.4,0.2-0.4,0.6-0.4,0.7
	c0,0.1,0,0.5,0.4,0.7l14.6,8l0,0c2.1,1.2,4.7,1.2,6.9,0l14.6-8c0.4-0.2,0.4-0.6,0.4-0.7c0-0.1,0-0.5-0.4-0.7l-14.6-8
	C167.4,268.7,166.3,268.4,165.1,268.4z"/>
<linearGradient id="SVGID_00000001648295733006022280000017783333505171332537_" gradientUnits="userSpaceOnUse" x1="439.5427" y1="155.8587" x2="463.1992" y2="155.8587" gradientTransform="matrix(1 0 0 -1 0 452)">
	<stop  offset="0" style="stop-color:#E39A65"/>
	<stop  offset="1" style="stop-color:#E95F8D"/>
</linearGradient>
<path style="fill:url(#SVGID_00000001648295733006022280000017783333505171332537_);" d="M451.4,302.7c-0.9,0-1.7-0.2-2.5-0.6
	l-8.5-4.7c-0.5-0.3-0.8-0.8-0.8-1.3c0-0.5,0.3-1,0.8-1.3l8.5-4.7c1.6-0.9,3.5-0.9,5,0l8.5,4.7c0.5,0.3,0.8,0.8,0.8,1.3
	c0,0.5-0.3,1-0.8,1.3l-8.5,4.7C453.1,302.5,452.2,302.7,451.4,302.7z M451.4,290.8c-0.6,0-1.3,0.2-1.8,0.5L441,296
	c-0.1,0.1-0.1,0.1-0.1,0.2s0,0.1,0.1,0.2l8.5,4.7l0,0c1.1,0.6,2.6,0.6,3.7,0l8.5-4.7c0.1-0.1,0.1-0.1,0.1-0.2c0,0,0-0.1-0.1-0.2
	l-8.5-4.7C452.7,291,452,290.8,451.4,290.8z"/>
<linearGradient id="SVGID_00000001633331293043317300000012144176869293870483_" gradientUnits="userSpaceOnUse" x1="407.1618" y1="186.6483" x2="446.8964" y2="186.6483" gradientTransform="matrix(1 0 0 -1 0 452)">
	<stop  offset="0" style="stop-color:#E39A65"/>
	<stop  offset="1" style="stop-color:#E95F8D"/>
</linearGradient>
<path style="fill:url(#SVGID_00000001633331293043317300000012144176869293870483_);" d="M427,276.3c-1.4,0-2.8-0.3-4.1-1l-14.6-8
	c-0.7-0.4-1.1-1.1-1.1-1.8c0-0.8,0.4-1.4,1.1-1.8l14.6-8c2.5-1.4,5.7-1.4,8.2,0l14.6,8c0.7,0.4,1.1,1.1,1.1,1.8s-0.4,1.4-1.1,1.8
	l-14.6,8C429.9,275.9,428.4,276.3,427,276.3z M423.6,274.1c2.1,1.2,4.7,1.2,6.9,0l14.6-8c0.4-0.2,0.4-0.6,0.4-0.7s0-0.5-0.4-0.7
	l-14.6-8c-2.1-1.2-4.7-1.2-6.9,0l-14.6,8c-0.4,0.2-0.4,0.6-0.4,0.7s0,0.5,0.4,0.7L423.6,274.1z"/>
<g>
	<path class="st4" d="M313.4,323.9l-104.7-57.4c-1.5-0.8-1.3-2.3,0.4-3.3l67.2-36.9c1.8-1,4.4-1.1,6-0.2L387,283.6
		c1.5,0.8,1.3,2.3-0.4,3.3l-67.2,36.9C317.6,324.7,314.9,324.8,313.4,323.9z"/>
	
		<linearGradient id="SVGID_00000098205563916728325470000015468433150713084602_" gradientUnits="userSpaceOnUse" x1="191.4536" y1="176.4249" x2="403.4777" y2="176.4249" gradientTransform="matrix(1 0 0 -1 0 452)">
		<stop  offset="0" style="stop-color:#E39A65"/>
		<stop  offset="1" style="stop-color:#E95F8D"/>
	</linearGradient>
	<path style="fill:url(#SVGID_00000098205563916728325470000015468433150713084602_);" d="M315.8,334.3c-1.2,0-2.4-0.2-3.3-0.7l0,0
		L193,268c-1-0.5-1.5-1.3-1.5-2.2c0-1,0.7-2,2-2.7l81.5-45.3c2.2-1.2,5.5-1.3,7.5-0.3L402,283.1c1,0.5,1.5,1.3,1.5,2.2
		c0,1-0.7,2-2,2.7L320,333.3C318.8,334,317.3,334.3,315.8,334.3z M279.1,218.1c-1.2,0-2.5,0.3-3.5,0.8l-81.5,45.3
		c-0.8,0.5-1.3,1-1.3,1.6c0,0.5,0.5,0.9,0.8,1.1l119.5,65.6l0,0c1.5,0.8,4.3,0.7,6.1-0.3l81.5-45.3c0.8-0.5,1.3-1,1.3-1.6
		c0-0.5-0.5-0.9-0.8-1.1l-119.5-65.6C281.1,218.3,280.1,218.1,279.1,218.1z"/>
	
		<radialGradient id="SVGID_00000145030111429962036910000002035532942853012132_" cx="396.9993" cy="293.9628" r="223.2961" gradientTransform="matrix(0.7252 0 0 -0.6888 20.6555 328.9625)" gradientUnits="userSpaceOnUse">
		<stop  offset="0" style="stop-color:#E39A65"/>
		<stop  offset="0.4742" style="stop-color:#A92FFB"/>
		<stop  offset="0.5947" style="stop-color:#891CFB"/>
		<stop  offset="0.7421" style="stop-color:#6507FA"/>
		<stop  offset="0.8016" style="stop-color:#0D0C6F"/>
	</radialGradient>
	<path style="fill:url(#SVGID_00000145030111429962036910000002035532942853012132_);" d="M414.8,187.3l-104.3-57.2
		c-0.7-0.4-1.5-0.5-2.1-0.3l0,0l0,0h0l-1.9,0.6l0.7,0.2c-0.3,0.3-0.5,0.7-0.6,1.1l-23.6,72.8c-0.6,1.8,0.3,4,1.9,4.9l104.3,57.2
		c0.3,0.1,0.5,0.2,0.8,0.3l-0.3,0.5l1.8-0.6h0c0.8-0.3,1.4-0.9,1.7-1.9l23.6-72.8C417.3,190.4,416.5,188.2,414.8,187.3z"/>
	
		<radialGradient id="SVGID_00000075146378882999582780000014817454525739478173_" cx="260.4266" cy="114.6398" r="244.1723" gradientTransform="matrix(0.7252 0 0 -0.6888 20.6555 328.9625)" gradientUnits="userSpaceOnUse">
		<stop  offset="0" style="stop-color:#E39A65"/>
		<stop  offset="0.4742" style="stop-color:#A92FFB"/>
		<stop  offset="0.5679" style="stop-color:#891CFB"/>
		<stop  offset="0.6825" style="stop-color:#6507FA"/>
		<stop  offset="0.7381" style="stop-color:#0D0C6F"/>
	</radialGradient>
	<path style="fill:url(#SVGID_00000075146378882999582780000014817454525739478173_);" d="M385.4,269.3L385.4,269.3l-103-56.5
		c-1.5-0.8-4.2-0.7-5.9,0.2l-66.6,36.5l-2.2-0.8l0.6,3l0,0c0.1,0.4,0.4,0.9,1,1.2l104,57c1.5,0.8,4.2,0.7,5.9-0.2l66.7-36.6
		c0.8-0.5,1.3-1,1.4-1.6l0,0l0.6-2.9L385.4,269.3z"/>
	
		<radialGradient id="SVGID_00000100346914827158045410000006352875913388517538_" cx="282.8839" cy="163.6493" r="218.96" gradientTransform="matrix(0.7252 0 0 -0.6888 20.6555 328.9625)" gradientUnits="userSpaceOnUse">
		<stop  offset="0" style="stop-color:#E39A65"/>
		<stop  offset="0.4742" style="stop-color:#A92FFB"/>
		<stop  offset="0.5875" style="stop-color:#891CFB"/>
		<stop  offset="0.7262" style="stop-color:#6507FA"/>
		<stop  offset="1" style="stop-color:#3919BB"/>
	</radialGradient>
	<path style="fill:url(#SVGID_00000100346914827158045410000006352875913388517538_);" d="M313.4,307.3l-104.7-57.4
		c-1.5-0.8-1.3-2.3,0.4-3.3l67.2-36.9c1.8-1,4.4-1.1,6-0.2L387,267c1.5,0.8,1.3,2.3-0.4,3.3l-67.2,36.9
		C317.6,308.1,314.9,308.2,313.4,307.3z"/>
	<path class="st9" d="M386.6,269.5l-67.2,36.9c-1.8,1-4.4,1.1-6,0.2l-104.7-57.4c-0.5-0.3-0.8-0.6-1-1c-0.2,0.7,0.1,1.3,1,1.8
		l104.7,57.4c1.5,0.8,4.2,0.7,6-0.2l67.2-36.9c1.2-0.6,1.6-1.5,1.4-2.2C387.8,268.5,387.4,269,386.6,269.5z"/>
	<g class="st10">
		<path class="st11" d="M258.6,240.6l-3.5-1.9c-0.3-0.2-0.2-0.4,0.1-0.6l4.2-2.3c0.3-0.2,0.8-0.2,1.1,0l3.5,1.9
			c0.3,0.2,0.2,0.4-0.1,0.6l-4.2,2.3C259.4,240.7,258.9,240.7,258.6,240.6z"/>
		<path class="st11" d="M264.1,243.6l-3.5-1.9c-0.3-0.2-0.2-0.4,0.1-0.6l4.2-2.3c0.3-0.2,0.8-0.2,1.1,0l3.5,1.9
			c0.3,0.2,0.2,0.4-0.1,0.6l-4.2,2.3C264.9,243.7,264.4,243.7,264.1,243.6z"/>
		<path class="st11" d="M269.5,246.6l-3.5-1.9c-0.3-0.2-0.2-0.4,0.1-0.6l4.2-2.3c0.3-0.2,0.8-0.2,1.1,0l3.5,1.9
			c0.3,0.2,0.2,0.4-0.1,0.6l-4.2,2.3C270.3,246.7,269.8,246.7,269.5,246.6z"/>
		<path class="st11" d="M277.1,244.1l-3.5-1.9c-0.3-0.2-0.2-0.4,0.1-0.6l3.5-1.9c0.3-0.2,0.8-0.2,1.1,0l3.5,1.9
			c0.3,0.2,0.2,0.4-0.1,0.6l-3.5,1.9C277.9,244.2,277.4,244.2,277.1,244.1z"/>
		<path class="st11" d="M282.6,247.1l-3.5-1.9c-0.3-0.2-0.2-0.4,0.1-0.6l3.5-1.9c0.3-0.2,0.8-0.2,1.1,0l3.5,1.9
			c0.3,0.2,0.2,0.4-0.1,0.6l-3.5,1.9C283.3,247.2,282.8,247.2,282.6,247.1z"/>
		<path class="st11" d="M288,250.1l-3.5-1.9c-0.3-0.2-0.2-0.4,0.1-0.6l3.5-1.9c0.3-0.2,0.8-0.2,1.1,0l3.5,1.9
			c0.3,0.2,0.2,0.4-0.1,0.6l-3.5,1.9C288.8,250.2,288.3,250.2,288,250.1z"/>
		<path class="st11" d="M293.5,253.1l-3.5-1.9c-0.3-0.2-0.2-0.4,0.1-0.6l3.5-1.9c0.3-0.2,0.8-0.2,1.1,0l3.5,1.9
			c0.3,0.2,0.2,0.4-0.1,0.6l-3.5,1.9C294.3,253.2,293.8,253.2,293.5,253.1z"/>
		<path class="st11" d="M298.9,256.1l-3.5-1.9c-0.3-0.2-0.2-0.4,0.1-0.6l3.5-1.9c0.3-0.2,0.8-0.2,1.1,0l3.5,1.9
			c0.3,0.2,0.2,0.4-0.1,0.6l-3.5,1.9C299.7,256.2,299.2,256.2,298.9,256.1z"/>
		<path class="st11" d="M304.4,259.1l-3.5-1.9c-0.3-0.2-0.2-0.4,0.1-0.6l3.5-1.9c0.3-0.2,0.8-0.2,1.1,0l3.5,1.9
			c0.3,0.2,0.2,0.4-0.1,0.6l-3.5,1.9C305.2,259.2,304.7,259.2,304.4,259.1z"/>
		<path class="st11" d="M309.9,262.1l-3.5-1.9c-0.3-0.2-0.2-0.4,0.1-0.6l3.5-1.9c0.3-0.2,0.8-0.2,1.1,0l3.5,1.9
			c0.3,0.2,0.2,0.4-0.1,0.6L311,262C310.6,262.2,310.1,262.2,309.9,262.1z"/>
		<path class="st11" d="M315.3,265.1l-3.5-1.9c-0.3-0.2-0.2-0.4,0.1-0.6l3.5-1.9c0.3-0.2,0.8-0.2,1.1,0l3.5,1.9
			c0.3,0.2,0.2,0.4-0.1,0.6l-3.5,1.9C316.1,265.2,315.6,265.2,315.3,265.1z"/>
		<path class="st11" d="M320.8,268.1l-3.5-1.9c-0.3-0.2-0.2-0.4,0.1-0.6l3.5-1.9c0.3-0.2,0.8-0.2,1.1,0l3.5,1.9
			c0.3,0.2,0.2,0.4-0.1,0.6l-3.5,1.9C321.6,268.2,321.1,268.2,320.8,268.1z"/>
		<path class="st11" d="M326.2,271l-3.5-1.9c-0.3-0.2-0.2-0.4,0.1-0.6l3.5-1.9c0.3-0.2,0.8-0.2,1.1,0l3.5,1.9
			c0.3,0.2,0.2,0.4-0.1,0.6l-3.5,1.9C327,271.2,326.5,271.2,326.2,271z"/>
		<path class="st11" d="M285.1,242.7l-3.5-1.9c-0.3-0.2-0.2-0.4,0.1-0.6l3.5-1.9c0.3-0.2,0.8-0.2,1.1,0l3.5,1.9
			c0.3,0.2,0.2,0.4-0.1,0.6l-3.5,1.9C285.9,242.8,285.4,242.8,285.1,242.7z"/>
		<path class="st11" d="M279.6,239.6l-3.5-1.9c-0.3-0.2-0.2-0.4,0.1-0.6l3.5-1.9c0.3-0.2,0.8-0.2,1.1,0l3.5,1.9
			c0.3,0.2,0.2,0.4-0.1,0.6l-3.5,1.9C280.4,239.8,279.9,239.8,279.6,239.6z"/>
		<path class="st11" d="M274,236.6l-7.6-4.2c-0.3-0.2-0.2-0.4,0.1-0.6l3.5-1.9c0.3-0.2,0.8-0.2,1.1,0l7.6,4.2
			c0.3,0.2,0.2,0.4-0.1,0.6l-3.5,1.9C274.8,236.7,274.3,236.7,274,236.6z"/>
		<path class="st11" d="M277.9,232.9l-6.2-3.4c-0.3-0.2-0.2-0.4,0.1-0.6l3.5-1.9c0.3-0.2,0.8-0.2,1.1,0l6.2,3.4
			c0.3,0.2,0.2,0.4-0.1,0.6l-3.5,1.9C278.7,233,278.2,233,277.9,232.9z"/>
		<path class="st11" d="M290.6,245.7l-3.5-1.9c-0.3-0.2-0.2-0.4,0.1-0.6l3.5-1.9c0.3-0.2,0.8-0.2,1.1,0l3.5,1.9
			c0.3,0.2,0.2,0.4-0.1,0.6l-3.5,1.9C291.4,245.8,290.9,245.8,290.6,245.7z"/>
		<path class="st11" d="M296.1,248.7l-3.5-1.9c-0.3-0.2-0.2-0.4,0.1-0.6l3.5-1.9c0.3-0.2,0.8-0.2,1.1,0l3.5,1.9
			c0.3,0.2,0.2,0.4-0.1,0.6l-3.5,1.9C296.8,248.8,296.3,248.8,296.1,248.7z"/>
		<path class="st11" d="M301.5,251.7l-3.5-1.9c-0.3-0.2-0.2-0.4,0.1-0.6l3.5-1.9c0.3-0.2,0.8-0.2,1.1,0l3.5,1.9
			c0.3,0.2,0.2,0.4-0.1,0.6l-3.5,1.9C302.3,251.8,301.8,251.8,301.5,251.7z"/>
		<path class="st11" d="M307,254.7l-3.5-1.9c-0.3-0.2-0.2-0.4,0.1-0.6l3.5-1.9c0.3-0.2,0.8-0.2,1.1,0l3.5,1.9
			c0.3,0.2,0.2,0.4-0.1,0.6l-3.5,1.9C307.8,254.8,307.3,254.8,307,254.7z"/>
		<path class="st11" d="M312.4,257.7l-3.5-1.9c-0.3-0.2-0.2-0.4,0.1-0.6l3.5-1.9c0.3-0.2,0.8-0.2,1.1,0l3.5,1.9
			c0.3,0.2,0.2,0.4-0.1,0.6l-3.5,1.9C313.2,257.8,312.7,257.8,312.4,257.7z"/>
		<path class="st11" d="M317.9,260.6l-3.5-1.9c-0.3-0.2-0.2-0.4,0.1-0.6l3.5-1.9c0.3-0.2,0.8-0.2,1.1,0l3.5,1.9
			c0.3,0.2,0.2,0.4-0.1,0.6l-3.5,1.9C318.7,260.8,318.2,260.8,317.9,260.6z"/>
		<path class="st11" d="M323.4,263.6l-3.5-1.9c-0.3-0.2-0.2-0.4,0.1-0.6l3.5-1.9c0.3-0.2,0.8-0.2,1.1,0l3.5,1.9
			c0.3,0.2,0.2,0.4-0.1,0.6l-3.5,1.9C324.2,263.8,323.7,263.8,323.4,263.6z"/>
		<path class="st11" d="M328.8,266.6l-3.5-1.9c-0.3-0.2-0.2-0.4,0.1-0.6l3.5-1.9c0.3-0.2,0.8-0.2,1.1,0l3.5,1.9
			c0.3,0.2,0.2,0.4-0.1,0.6l-3.5,1.9C329.6,266.8,329.1,266.8,328.8,266.6z"/>
		<path class="st11" d="M334.3,269.6l-3.5-1.9c-0.3-0.2-0.2-0.4,0.1-0.6l3.5-1.9c0.3-0.2,0.8-0.2,1.1,0l3.5,1.9
			c0.3,0.2,0.2,0.4-0.1,0.6l-3.5,1.9C335.1,269.8,334.6,269.8,334.3,269.6z"/>
		<path class="st11" d="M344,275l-7.7-4.2c-0.3-0.2-0.2-0.4,0.1-0.6l3.5-1.9c0.3-0.2,0.8-0.2,1.1,0l7.7,4.2c0.3,0.2,0.2,0.4-0.1,0.6
			l-3.5,1.9C344.8,275.1,344.3,275.1,344,275z"/>
		<path class="st11" d="M354.6,269.1l-6.5-3.6c-0.3-0.2-0.2-0.4,0.1-0.6l3.5-1.9c0.3-0.2,0.8-0.2,1.1,0l6.5,3.6
			c0.3,0.2,0.2,0.4-0.1,0.6l-3.5,1.9C355.4,269.3,354.9,269.3,354.6,269.1z"/>
		<path class="st11" d="M300.2,245.1l-3.5-1.9c-0.3-0.2-0.2-0.4,0.1-0.6l3.5-1.9c0.3-0.2,0.8-0.2,1.1,0l3.5,1.9
			c0.3,0.2,0.2,0.4-0.1,0.6l-3.5,1.9C300.9,245.2,300.5,245.2,300.2,245.1z"/>
		<path class="st11" d="M294.6,242l-3.5-1.9c-0.3-0.2-0.2-0.4,0.1-0.6l3.5-1.9c0.3-0.2,0.8-0.2,1.1,0l3.5,1.9
			c0.3,0.2,0.2,0.4-0.1,0.6l-3.5,1.9C295.4,242.2,294.9,242.2,294.6,242z"/>
		<path class="st11" d="M289,238.9l-3.5-1.9c-0.3-0.2-0.2-0.4,0.1-0.6l3.5-1.9c0.3-0.2,0.8-0.2,1.1,0l3.5,1.9
			c0.3,0.2,0.2,0.4-0.1,0.6l-3.5,1.9C289.8,239.1,289.3,239.1,289,238.9z"/>
		<path class="st11" d="M283.4,235.9l-3.5-1.9c-0.3-0.2-0.2-0.4,0.1-0.6l3.5-1.9c0.3-0.2,0.8-0.2,1.1,0l3.5,1.9
			c0.3,0.2,0.2,0.4-0.1,0.6l-3.5,1.9C284.2,236,283.7,236,283.4,235.9z"/>
		<path class="st11" d="M305.6,248.1l-3.5-1.9c-0.3-0.2-0.2-0.4,0.1-0.6l3.5-1.9c0.3-0.2,0.8-0.2,1.1,0l3.5,1.9
			c0.3,0.2,0.2,0.4-0.1,0.6l-3.5,1.9C306.4,248.2,305.9,248.2,305.6,248.1z"/>
		<path class="st11" d="M311.1,251.1l-3.5-1.9c-0.3-0.2-0.2-0.4,0.1-0.6l3.5-1.9c0.3-0.2,0.8-0.2,1.1,0l3.5,1.9
			c0.3,0.2,0.2,0.4-0.1,0.6l-3.5,1.9C311.9,251.2,311.4,251.2,311.1,251.1z"/>
		<path class="st11" d="M316.6,254.1l-3.5-1.9c-0.3-0.2-0.2-0.4,0.1-0.6l3.5-1.9c0.3-0.2,0.8-0.2,1.1,0l3.5,1.9
			c0.3,0.2,0.2,0.4-0.1,0.6l-3.5,1.9C317.3,254.2,316.8,254.2,316.6,254.1z"/>
		<path class="st11" d="M322,257.1l-3.5-1.9c-0.3-0.2-0.2-0.4,0.1-0.6l3.5-1.9c0.3-0.2,0.8-0.2,1.1,0l3.5,1.9
			c0.3,0.2,0.2,0.4-0.1,0.6l-3.5,1.9C322.8,257.2,322.3,257.2,322,257.1z"/>
		<path class="st11" d="M327.5,260.1l-3.5-1.9c-0.3-0.2-0.2-0.4,0.1-0.6l3.5-1.9c0.3-0.2,0.8-0.2,1.1,0l3.5,1.9
			c0.3,0.2,0.2,0.4-0.1,0.6l-3.5,1.9C328.3,260.2,327.8,260.2,327.5,260.1z"/>
		<path class="st11" d="M332.9,263.1l-3.5-1.9c-0.3-0.2-0.2-0.4,0.1-0.6l3.5-1.9c0.3-0.2,0.8-0.2,1.1,0l3.5,1.9
			c0.3,0.2,0.2,0.4-0.1,0.6L334,263C333.7,263.2,333.2,263.2,332.9,263.1z"/>
		<path class="st11" d="M338.4,266l-3.5-1.9c-0.3-0.2-0.2-0.4,0.1-0.6l3.5-1.9c0.3-0.2,0.8-0.2,1.1,0l3.5,1.9
			c0.3,0.2,0.2,0.4-0.1,0.6l-3.5,1.9C339.2,266.2,338.7,266.2,338.4,266z"/>
		<path class="st11" d="M343.9,269l-3.5-1.9c-0.3-0.2-0.2-0.4,0.1-0.6l3.5-1.9c0.3-0.2,0.8-0.2,1.1,0l3.5,1.9
			c0.3,0.2,0.2,0.4-0.1,0.6L345,269C344.6,269.2,344.1,269.2,343.9,269z"/>
		<path class="st11" d="M349.3,272l-3.5-1.9c-0.3-0.2-0.2-0.4,0.1-0.6l3.5-1.9c0.3-0.2,0.8-0.2,1.1,0l3.5,1.9
			c0.3,0.2,0.2,0.4-0.1,0.6l-3.5,1.9C350.1,272.2,349.6,272.2,349.3,272z"/>
		<path class="st11" d="M297.3,237.7l-3.5-1.9c-0.3-0.2-0.2-0.4,0.1-0.6l3.5-1.9c0.3-0.2,0.8-0.2,1.1,0l3.5,1.9
			c0.3,0.2,0.2,0.4-0.1,0.6l-3.5,1.9C298.1,237.8,297.6,237.8,297.3,237.7z"/>
		<path class="st11" d="M291.9,234.7l-3.5-1.9c-0.3-0.2-0.2-0.4,0.1-0.6l3.5-1.9c0.3-0.2,0.8-0.2,1.1,0l3.5,1.9
			c0.3,0.2,0.2,0.4-0.1,0.6l-3.5,1.9C292.6,234.8,292.1,234.9,291.9,234.7z"/>
		<path class="st11" d="M286.4,231.7l-3.5-1.9c-0.3-0.2-0.2-0.4,0.1-0.6l3.5-1.9c0.3-0.2,0.8-0.2,1.1,0l3.5,1.9
			c0.3,0.2,0.2,0.4-0.1,0.6l-3.5,1.9C287.2,231.9,286.7,231.9,286.4,231.7z"/>
		<path class="st11" d="M281,228.7l-3.5-1.9c-0.3-0.2-0.2-0.4,0.1-0.6l3.5-1.9c0.3-0.2,0.8-0.2,1.1,0l3.5,1.9
			c0.3,0.2,0.2,0.4-0.1,0.6l-3.5,1.9C281.8,228.9,281.3,228.9,281,228.7z"/>
		<path class="st11" d="M286.6,225.7l-3.5-1.9c-0.3-0.2-0.2-0.4,0.1-0.6l1.2-0.6c0.3-0.2,0.8-0.2,1.1,0l3.5,1.9
			c0.3,0.2,0.2,0.4-0.1,0.6l-1.2,0.6C287.4,225.8,286.9,225.8,286.6,225.7z"/>
		<path class="st11" d="M293.7,229.6l-3.5-1.9c-0.3-0.2-0.2-0.4,0.1-0.6l1.2-0.6c0.3-0.2,0.8-0.2,1.1,0l3.5,1.9
			c0.3,0.2,0.2,0.4-0.1,0.6l-1.2,0.6C294.4,229.7,294,229.7,293.7,229.6z"/>
		<path class="st11" d="M299.1,232.5l-3.5-1.9c-0.3-0.2-0.2-0.4,0.1-0.6l1.2-0.6c0.3-0.2,0.8-0.2,1.1,0l3.5,1.9
			c0.3,0.2,0.2,0.4-0.1,0.6l-1.2,0.6C299.9,232.7,299.4,232.7,299.1,232.5z"/>
		<path class="st11" d="M304.5,235.5l-3.5-1.9c-0.3-0.2-0.2-0.4,0.1-0.6l1.2-0.6c0.3-0.2,0.8-0.2,1.1,0l3.5,1.9
			c0.3,0.2,0.2,0.4-0.1,0.6l-1.2,0.6C305.3,235.6,304.8,235.7,304.5,235.5z"/>
		<path class="st11" d="M309.9,238.5l-3.5-1.9c-0.3-0.2-0.2-0.4,0.1-0.6l1.2-0.6c0.3-0.2,0.8-0.2,1.1,0l3.5,1.9
			c0.3,0.2,0.2,0.4-0.1,0.6l-1.2,0.6C310.7,238.6,310.2,238.6,309.9,238.5z"/>
		<path class="st11" d="M340.1,255l-3.5-1.9c-0.3-0.2-0.2-0.4,0.1-0.6l1.2-0.6c0.3-0.2,0.8-0.2,1.1,0l3.5,1.9
			c0.3,0.2,0.2,0.4-0.1,0.6l-1.2,0.6C340.9,255.2,340.4,255.2,340.1,255z"/>
		<path class="st11" d="M345.5,258l-3.5-1.9c-0.3-0.2-0.2-0.4,0.1-0.6l1.2-0.6c0.3-0.2,0.8-0.2,1.1,0l3.5,1.9
			c0.3,0.2,0.2,0.4-0.1,0.6l-1.2,0.6C346.3,258.1,345.8,258.2,345.5,258z"/>
		<path class="st11" d="M350.9,261l-3.5-1.9c-0.3-0.2-0.2-0.4,0.1-0.6l1.2-0.6c0.3-0.2,0.8-0.2,1.1,0l3.5,1.9
			c0.3,0.2,0.2,0.4-0.1,0.6l-1.2,0.6C351.7,261.1,351.2,261.1,350.9,261z"/>
		<path class="st11" d="M356.4,263.9l-3.5-1.9c-0.3-0.2-0.2-0.4,0.1-0.6l1.2-0.6c0.3-0.2,0.8-0.2,1.1,0l3.5,1.9
			c0.3,0.2,0.2,0.4-0.1,0.6l-1.2,0.6C357.1,264.1,356.6,264.1,356.4,263.9z"/>
		<path class="st11" d="M302.8,240.7l-3.5-1.9c-0.3-0.2-0.2-0.4,0.1-0.6l3.5-1.9c0.3-0.2,0.8-0.2,1.1,0l3.5,1.9
			c0.3,0.2,0.2,0.4-0.1,0.6l-3.5,1.9C303.5,240.8,303,240.8,302.8,240.7z"/>
		<path class="st11" d="M308.2,243.7l-3.5-1.9c-0.3-0.2-0.2-0.4,0.1-0.6l3.5-1.9c0.3-0.2,0.8-0.2,1.1,0l3.5,1.9
			c0.3,0.2,0.2,0.4-0.1,0.6l-3.5,1.9C309,243.8,308.5,243.8,308.2,243.7z"/>
		<path class="st11" d="M313.7,246.7l-3.5-1.9c-0.3-0.2-0.2-0.4,0.1-0.6l3.5-1.9c0.3-0.2,0.8-0.2,1.1,0l3.5,1.9
			c0.3,0.2,0.2,0.4-0.1,0.6l-3.5,1.9C314.5,246.8,314,246.8,313.7,246.7z"/>
		<path class="st11" d="M319.1,249.7l-3.5-1.9c-0.3-0.2-0.2-0.4,0.1-0.6l3.5-1.9c0.3-0.2,0.8-0.2,1.1,0l3.5,1.9
			c0.3,0.2,0.2,0.4-0.1,0.6l-3.5,1.9C319.9,249.8,319.4,249.8,319.1,249.7z"/>
		<path class="st11" d="M324.6,252.7l-3.5-1.9c-0.3-0.2-0.2-0.4,0.1-0.6l3.5-1.9c0.3-0.2,0.8-0.2,1.1,0l3.5,1.9
			c0.3,0.2,0.2,0.4-0.1,0.6l-3.5,1.9C325.4,252.8,324.9,252.8,324.6,252.7z"/>
		<path class="st11" d="M330.1,255.6l-3.5-1.9c-0.3-0.2-0.2-0.4,0.1-0.6l3.5-1.9c0.3-0.2,0.8-0.2,1.1,0l3.5,1.9
			c0.3,0.2,0.2,0.4-0.1,0.6l-3.5,1.9C330.8,255.8,330.3,255.8,330.1,255.6z"/>
		<path class="st11" d="M335.5,258.6l-3.5-1.9c-0.3-0.2-0.2-0.4,0.1-0.6l3.5-1.9c0.3-0.2,0.8-0.2,1.1,0l3.5,1.9
			c0.3,0.2,0.2,0.4-0.1,0.6l-3.5,1.9C336.3,258.8,335.8,258.8,335.5,258.6z"/>
		<path class="st11" d="M341,261.6l-3.5-1.9c-0.3-0.2-0.2-0.4,0.1-0.6l3.5-1.9c0.3-0.2,0.8-0.2,1.1,0l3.5,1.9
			c0.3,0.2,0.2,0.4-0.1,0.6l-3.5,1.9C341.8,261.8,341.3,261.8,341,261.6z"/>
		<path class="st11" d="M346.4,264.6l-3.5-1.9c-0.3-0.2-0.2-0.4,0.1-0.6l3.5-1.9c0.3-0.2,0.8-0.2,1.1,0l3.5,1.9
			c0.3,0.2,0.2,0.4-0.1,0.6l-3.5,1.9C347.2,264.8,346.7,264.8,346.4,264.6z"/>
		<path class="st11" d="M271.5,241l-10.4-5.7c-0.3-0.2-0.2-0.4,0.1-0.6l3.5-1.9c0.3-0.2,0.8-0.2,1.1,0l10.4,5.7
			c0.3,0.2,0.2,0.4-0.1,0.6l-3.5,1.9C272.3,241.2,271.8,241.2,271.5,241z"/>
		<path class="st11" d="M338.6,277.8l-10.4-5.7c-0.3-0.2-0.2-0.4,0.1-0.6l3.5-1.9c0.3-0.2,0.8-0.2,1.1,0l10.4,5.7
			c0.3,0.2,0.2,0.4-0.1,0.6l-3.5,1.9C339.4,278,338.9,278,338.6,277.8z"/>
		<path class="st11" d="M316.8,272.5l-3.5-1.9c-0.3-0.2-0.2-0.4,0.1-0.6l4.2-2.3c0.3-0.2,0.8-0.2,1.1,0l3.5,1.9
			c0.3,0.2,0.2,0.4-0.1,0.6l-4.2,2.3C317.6,272.6,317.1,272.6,316.8,272.5z"/>
		<path class="st11" d="M277.1,250.7l-5.7-3.1c-0.3-0.2-0.2-0.4,0.1-0.6l4.2-2.3c0.3-0.2,0.8-0.2,1.1,0l5.7,3.1
			c0.3,0.2,0.2,0.4-0.1,0.6l-4.2,2.3C277.9,250.9,277.4,250.9,277.1,250.7z"/>
		<path class="st11" d="M311.5,269.6l-5.7-3.1c-0.3-0.2-0.2-0.4,0.1-0.6l4.2-2.3c0.3-0.2,0.8-0.2,1.1,0l5.7,3.1
			c0.3,0.2,0.2,0.4-0.1,0.6l-4.2,2.3C312.3,269.7,311.8,269.7,311.5,269.6z"/>
		<path class="st11" d="M285,255l-5.7-3.1c-0.3-0.2-0.2-0.4,0.1-0.6l4.2-2.3c0.3-0.2,0.8-0.2,1.1,0l5.7,3.1c0.3,0.2,0.2,0.4-0.1,0.6
			l-4.2,2.3C285.8,255.2,285.3,255.2,285,255z"/>
		<path class="st11" d="M284.8,249l24.6,13.5c0.3,0.2,0.3,0.4,0,0.6l-4.3,2.3c-0.3,0.2-0.8,0.2-1.1,0L279.4,252L284.8,249z"/>
		<path class="st11" d="M332.1,277.9l3.9,2.2c0.2,0.1,0.2,0.4-0.1,0.5l-1.7,0.9c-0.3,0.1-0.7,0.2-0.9,0l-3.9-2.2
			c-0.2-0.1-0.2-0.4,0.1-0.5l1.7-0.9C331.4,277.8,331.8,277.8,332.1,277.9z"/>
		<path class="st11" d="M326.5,274.9l3.9,2.2c0.2,0.1,0.2,0.4-0.1,0.5l-1.7,0.9c-0.3,0.1-0.7,0.2-0.9,0l-3.9-2.2
			c-0.2-0.1-0.2-0.4,0.1-0.5l1.7-0.9C325.9,274.8,326.3,274.8,326.5,274.9z"/>
		<path class="st11" d="M321.1,271.9l3.9,2.2c0.2,0.1,0.2,0.4-0.1,0.5l-1.7,0.9c-0.3,0.1-0.7,0.2-0.9,0l-3.9-2.2
			c-0.2-0.1-0.2-0.4,0.1-0.5l1.7-0.9C320.4,271.8,320.8,271.8,321.1,271.9z"/>
		<path class="st11" d="M329.6,273.2l3.9,2.2c0.2,0.1,0.2,0.4-0.1,0.5l-1.7,0.9c-0.3,0.1-0.7,0.2-0.9,0l-3.9-2.2
			c-0.2-0.1-0.2-0.4,0.1-0.5l1.7-0.9C328.9,273.1,329.3,273.1,329.6,273.2z"/>
	</g>
	<g class="st10">
		<path class="st11" d="M258.6,240.6l-3.5-1.9c-0.3-0.2-0.2-0.4,0.1-0.6l4.2-2.3c0.3-0.2,0.8-0.2,1.1,0l3.5,1.9
			c0.3,0.2,0.2,0.4-0.1,0.6l-4.2,2.3C259.4,240.7,258.9,240.7,258.6,240.6z"/>
		<path class="st11" d="M264.1,243.6l-3.5-1.9c-0.3-0.2-0.2-0.4,0.1-0.6l4.2-2.3c0.3-0.2,0.8-0.2,1.1,0l3.5,1.9
			c0.3,0.2,0.2,0.4-0.1,0.6l-4.2,2.3C264.9,243.7,264.4,243.7,264.1,243.6z"/>
		<path class="st11" d="M269.5,246.6l-3.5-1.9c-0.3-0.2-0.2-0.4,0.1-0.6l4.2-2.3c0.3-0.2,0.8-0.2,1.1,0l3.5,1.9
			c0.3,0.2,0.2,0.4-0.1,0.6l-4.2,2.3C270.3,246.7,269.8,246.7,269.5,246.6z"/>
		<path class="st11" d="M277.1,244.1l-3.5-1.9c-0.3-0.2-0.2-0.4,0.1-0.6l3.5-1.9c0.3-0.2,0.8-0.2,1.1,0l3.5,1.9
			c0.3,0.2,0.2,0.4-0.1,0.6l-3.5,1.9C277.9,244.2,277.4,244.2,277.1,244.1z"/>
		<path class="st11" d="M282.6,247.1l-3.5-1.9c-0.3-0.2-0.2-0.4,0.1-0.6l3.5-1.9c0.3-0.2,0.8-0.2,1.1,0l3.5,1.9
			c0.3,0.2,0.2,0.4-0.1,0.6l-3.5,1.9C283.3,247.2,282.8,247.2,282.6,247.1z"/>
		<path class="st11" d="M288,250.1l-3.5-1.9c-0.3-0.2-0.2-0.4,0.1-0.6l3.5-1.9c0.3-0.2,0.8-0.2,1.1,0l3.5,1.9
			c0.3,0.2,0.2,0.4-0.1,0.6l-3.5,1.9C288.8,250.2,288.3,250.2,288,250.1z"/>
		<path class="st11" d="M293.5,253.1l-3.5-1.9c-0.3-0.2-0.2-0.4,0.1-0.6l3.5-1.9c0.3-0.2,0.8-0.2,1.1,0l3.5,1.9
			c0.3,0.2,0.2,0.4-0.1,0.6l-3.5,1.9C294.3,253.2,293.8,253.2,293.5,253.1z"/>
		<path class="st11" d="M298.9,256.1l-3.5-1.9c-0.3-0.2-0.2-0.4,0.1-0.6l3.5-1.9c0.3-0.2,0.8-0.2,1.1,0l3.5,1.9
			c0.3,0.2,0.2,0.4-0.1,0.6l-3.5,1.9C299.7,256.2,299.2,256.2,298.9,256.1z"/>
		<path class="st11" d="M304.4,259.1l-3.5-1.9c-0.3-0.2-0.2-0.4,0.1-0.6l3.5-1.9c0.3-0.2,0.8-0.2,1.1,0l3.5,1.9
			c0.3,0.2,0.2,0.4-0.1,0.6l-3.5,1.9C305.2,259.2,304.7,259.2,304.4,259.1z"/>
		<path class="st11" d="M309.9,262.1l-3.5-1.9c-0.3-0.2-0.2-0.4,0.1-0.6l3.5-1.9c0.3-0.2,0.8-0.2,1.1,0l3.5,1.9
			c0.3,0.2,0.2,0.4-0.1,0.6L311,262C310.6,262.2,310.1,262.2,309.9,262.1z"/>
		<path class="st11" d="M315.3,265.1l-3.5-1.9c-0.3-0.2-0.2-0.4,0.1-0.6l3.5-1.9c0.3-0.2,0.8-0.2,1.1,0l3.5,1.9
			c0.3,0.2,0.2,0.4-0.1,0.6l-3.5,1.9C316.1,265.2,315.6,265.2,315.3,265.1z"/>
		<path class="st11" d="M320.8,268.1l-3.5-1.9c-0.3-0.2-0.2-0.4,0.1-0.6l3.5-1.9c0.3-0.2,0.8-0.2,1.1,0l3.5,1.9
			c0.3,0.2,0.2,0.4-0.1,0.6l-3.5,1.9C321.6,268.2,321.1,268.2,320.8,268.1z"/>
		<path class="st11" d="M326.2,271l-3.5-1.9c-0.3-0.2-0.2-0.4,0.1-0.6l3.5-1.9c0.3-0.2,0.8-0.2,1.1,0l3.5,1.9
			c0.3,0.2,0.2,0.4-0.1,0.6l-3.5,1.9C327,271.2,326.5,271.2,326.2,271z"/>
		<path class="st11" d="M285.1,242.7l-3.5-1.9c-0.3-0.2-0.2-0.4,0.1-0.6l3.5-1.9c0.3-0.2,0.8-0.2,1.1,0l3.5,1.9
			c0.3,0.2,0.2,0.4-0.1,0.6l-3.5,1.9C285.9,242.8,285.4,242.8,285.1,242.7z"/>
		<path class="st11" d="M279.6,239.6l-3.5-1.9c-0.3-0.2-0.2-0.4,0.1-0.6l3.5-1.9c0.3-0.2,0.8-0.2,1.1,0l3.5,1.9
			c0.3,0.2,0.2,0.4-0.1,0.6l-3.5,1.9C280.4,239.8,279.9,239.8,279.6,239.6z"/>
		<path class="st11" d="M274,236.6l-7.6-4.2c-0.3-0.2-0.2-0.4,0.1-0.6l3.5-1.9c0.3-0.2,0.8-0.2,1.1,0l7.6,4.2
			c0.3,0.2,0.2,0.4-0.1,0.6l-3.5,1.9C274.8,236.7,274.3,236.7,274,236.6z"/>
		<path class="st11" d="M277.9,232.9l-6.2-3.4c-0.3-0.2-0.2-0.4,0.1-0.6l3.5-1.9c0.3-0.2,0.8-0.2,1.1,0l6.2,3.4
			c0.3,0.2,0.2,0.4-0.1,0.6l-3.5,1.9C278.7,233,278.2,233,277.9,232.9z"/>
		<path class="st11" d="M290.6,245.7l-3.5-1.9c-0.3-0.2-0.2-0.4,0.1-0.6l3.5-1.9c0.3-0.2,0.8-0.2,1.1,0l3.5,1.9
			c0.3,0.2,0.2,0.4-0.1,0.6l-3.5,1.9C291.4,245.8,290.9,245.8,290.6,245.7z"/>
		<path class="st11" d="M296.1,248.7l-3.5-1.9c-0.3-0.2-0.2-0.4,0.1-0.6l3.5-1.9c0.3-0.2,0.8-0.2,1.1,0l3.5,1.9
			c0.3,0.2,0.2,0.4-0.1,0.6l-3.5,1.9C296.8,248.8,296.3,248.8,296.1,248.7z"/>
		<path class="st11" d="M301.5,251.7l-3.5-1.9c-0.3-0.2-0.2-0.4,0.1-0.6l3.5-1.9c0.3-0.2,0.8-0.2,1.1,0l3.5,1.9
			c0.3,0.2,0.2,0.4-0.1,0.6l-3.5,1.9C302.3,251.8,301.8,251.8,301.5,251.7z"/>
		<path class="st11" d="M307,254.7l-3.5-1.9c-0.3-0.2-0.2-0.4,0.1-0.6l3.5-1.9c0.3-0.2,0.8-0.2,1.1,0l3.5,1.9
			c0.3,0.2,0.2,0.4-0.1,0.6l-3.5,1.9C307.8,254.8,307.3,254.8,307,254.7z"/>
		<path class="st11" d="M312.4,257.7l-3.5-1.9c-0.3-0.2-0.2-0.4,0.1-0.6l3.5-1.9c0.3-0.2,0.8-0.2,1.1,0l3.5,1.9
			c0.3,0.2,0.2,0.4-0.1,0.6l-3.5,1.9C313.2,257.8,312.7,257.8,312.4,257.7z"/>
		<path class="st11" d="M317.9,260.6l-3.5-1.9c-0.3-0.2-0.2-0.4,0.1-0.6l3.5-1.9c0.3-0.2,0.8-0.2,1.1,0l3.5,1.9
			c0.3,0.2,0.2,0.4-0.1,0.6l-3.5,1.9C318.7,260.8,318.2,260.8,317.9,260.6z"/>
		<path class="st11" d="M323.4,263.6l-3.5-1.9c-0.3-0.2-0.2-0.4,0.1-0.6l3.5-1.9c0.3-0.2,0.8-0.2,1.1,0l3.5,1.9
			c0.3,0.2,0.2,0.4-0.1,0.6l-3.5,1.9C324.2,263.8,323.7,263.8,323.4,263.6z"/>
		<path class="st11" d="M328.8,266.6l-3.5-1.9c-0.3-0.2-0.2-0.4,0.1-0.6l3.5-1.9c0.3-0.2,0.8-0.2,1.1,0l3.5,1.9
			c0.3,0.2,0.2,0.4-0.1,0.6l-3.5,1.9C329.6,266.8,329.1,266.8,328.8,266.6z"/>
		<path class="st11" d="M334.3,269.6l-3.5-1.9c-0.3-0.2-0.2-0.4,0.1-0.6l3.5-1.9c0.3-0.2,0.8-0.2,1.1,0l3.5,1.9
			c0.3,0.2,0.2,0.4-0.1,0.6l-3.5,1.9C335.1,269.8,334.6,269.8,334.3,269.6z"/>
		<path class="st11" d="M344,275l-7.7-4.2c-0.3-0.2-0.2-0.4,0.1-0.6l3.5-1.9c0.3-0.2,0.8-0.2,1.1,0l7.7,4.2c0.3,0.2,0.2,0.4-0.1,0.6
			l-3.5,1.9C344.8,275.1,344.3,275.1,344,275z"/>
		<path class="st11" d="M354.6,269.1l-6.5-3.6c-0.3-0.2-0.2-0.4,0.1-0.6l3.5-1.9c0.3-0.2,0.8-0.2,1.1,0l6.5,3.6
			c0.3,0.2,0.2,0.4-0.1,0.6l-3.5,1.9C355.4,269.3,354.9,269.3,354.6,269.1z"/>
		<path class="st11" d="M300.2,245.1l-3.5-1.9c-0.3-0.2-0.2-0.4,0.1-0.6l3.5-1.9c0.3-0.2,0.8-0.2,1.1,0l3.5,1.9
			c0.3,0.2,0.2,0.4-0.1,0.6l-3.5,1.9C300.9,245.2,300.5,245.2,300.2,245.1z"/>
		<path class="st11" d="M294.6,242l-3.5-1.9c-0.3-0.2-0.2-0.4,0.1-0.6l3.5-1.9c0.3-0.2,0.8-0.2,1.1,0l3.5,1.9
			c0.3,0.2,0.2,0.4-0.1,0.6l-3.5,1.9C295.4,242.2,294.9,242.2,294.6,242z"/>
		<path class="st11" d="M289,238.9l-3.5-1.9c-0.3-0.2-0.2-0.4,0.1-0.6l3.5-1.9c0.3-0.2,0.8-0.2,1.1,0l3.5,1.9
			c0.3,0.2,0.2,0.4-0.1,0.6l-3.5,1.9C289.8,239.1,289.3,239.1,289,238.9z"/>
		<path class="st11" d="M283.4,235.9l-3.5-1.9c-0.3-0.2-0.2-0.4,0.1-0.6l3.5-1.9c0.3-0.2,0.8-0.2,1.1,0l3.5,1.9
			c0.3,0.2,0.2,0.4-0.1,0.6l-3.5,1.9C284.2,236,283.7,236,283.4,235.9z"/>
		<path class="st11" d="M305.6,248.1l-3.5-1.9c-0.3-0.2-0.2-0.4,0.1-0.6l3.5-1.9c0.3-0.2,0.8-0.2,1.1,0l3.5,1.9
			c0.3,0.2,0.2,0.4-0.1,0.6l-3.5,1.9C306.4,248.2,305.9,248.2,305.6,248.1z"/>
		<path class="st11" d="M311.1,251.1l-3.5-1.9c-0.3-0.2-0.2-0.4,0.1-0.6l3.5-1.9c0.3-0.2,0.8-0.2,1.1,0l3.5,1.9
			c0.3,0.2,0.2,0.4-0.1,0.6l-3.5,1.9C311.9,251.2,311.4,251.2,311.1,251.1z"/>
		<path class="st11" d="M316.6,254.1l-3.5-1.9c-0.3-0.2-0.2-0.4,0.1-0.6l3.5-1.9c0.3-0.2,0.8-0.2,1.1,0l3.5,1.9
			c0.3,0.2,0.2,0.4-0.1,0.6l-3.5,1.9C317.3,254.2,316.8,254.2,316.6,254.1z"/>
		<path class="st11" d="M322,257.1l-3.5-1.9c-0.3-0.2-0.2-0.4,0.1-0.6l3.5-1.9c0.3-0.2,0.8-0.2,1.1,0l3.5,1.9
			c0.3,0.2,0.2,0.4-0.1,0.6l-3.5,1.9C322.8,257.2,322.3,257.2,322,257.1z"/>
		<path class="st11" d="M327.5,260.1l-3.5-1.9c-0.3-0.2-0.2-0.4,0.1-0.6l3.5-1.9c0.3-0.2,0.8-0.2,1.1,0l3.5,1.9
			c0.3,0.2,0.2,0.4-0.1,0.6l-3.5,1.9C328.3,260.2,327.8,260.2,327.5,260.1z"/>
		<path class="st11" d="M332.9,263.1l-3.5-1.9c-0.3-0.2-0.2-0.4,0.1-0.6l3.5-1.9c0.3-0.2,0.8-0.2,1.1,0l3.5,1.9
			c0.3,0.2,0.2,0.4-0.1,0.6L334,263C333.7,263.2,333.2,263.2,332.9,263.1z"/>
		<path class="st11" d="M338.4,266l-3.5-1.9c-0.3-0.2-0.2-0.4,0.1-0.6l3.5-1.9c0.3-0.2,0.8-0.2,1.1,0l3.5,1.9
			c0.3,0.2,0.2,0.4-0.1,0.6l-3.5,1.9C339.2,266.2,338.7,266.2,338.4,266z"/>
		<path class="st11" d="M343.9,269l-3.5-1.9c-0.3-0.2-0.2-0.4,0.1-0.6l3.5-1.9c0.3-0.2,0.8-0.2,1.1,0l3.5,1.9
			c0.3,0.2,0.2,0.4-0.1,0.6L345,269C344.6,269.2,344.1,269.2,343.9,269z"/>
		<path class="st11" d="M349.3,272l-3.5-1.9c-0.3-0.2-0.2-0.4,0.1-0.6l3.5-1.9c0.3-0.2,0.8-0.2,1.1,0l3.5,1.9
			c0.3,0.2,0.2,0.4-0.1,0.6l-3.5,1.9C350.1,272.2,349.6,272.2,349.3,272z"/>
		<path class="st11" d="M297.3,237.7l-3.5-1.9c-0.3-0.2-0.2-0.4,0.1-0.6l3.5-1.9c0.3-0.2,0.8-0.2,1.1,0l3.5,1.9
			c0.3,0.2,0.2,0.4-0.1,0.6l-3.5,1.9C298.1,237.8,297.6,237.8,297.3,237.7z"/>
		<path class="st11" d="M291.9,234.7l-3.5-1.9c-0.3-0.2-0.2-0.4,0.1-0.6l3.5-1.9c0.3-0.2,0.8-0.2,1.1,0l3.5,1.9
			c0.3,0.2,0.2,0.4-0.1,0.6l-3.5,1.9C292.6,234.8,292.1,234.9,291.9,234.7z"/>
		<path class="st11" d="M286.4,231.7l-3.5-1.9c-0.3-0.2-0.2-0.4,0.1-0.6l3.5-1.9c0.3-0.2,0.8-0.2,1.1,0l3.5,1.9
			c0.3,0.2,0.2,0.4-0.1,0.6l-3.5,1.9C287.2,231.9,286.7,231.9,286.4,231.7z"/>
		<path class="st11" d="M281,228.7l-3.5-1.9c-0.3-0.2-0.2-0.4,0.1-0.6l3.5-1.9c0.3-0.2,0.8-0.2,1.1,0l3.5,1.9
			c0.3,0.2,0.2,0.4-0.1,0.6l-3.5,1.9C281.8,228.9,281.3,228.9,281,228.7z"/>
		<path class="st11" d="M286.6,225.7l-3.5-1.9c-0.3-0.2-0.2-0.4,0.1-0.6l1.2-0.6c0.3-0.2,0.8-0.2,1.1,0l3.5,1.9
			c0.3,0.2,0.2,0.4-0.1,0.6l-1.2,0.6C287.4,225.8,286.9,225.8,286.6,225.7z"/>
		<path class="st11" d="M293.7,229.6l-3.5-1.9c-0.3-0.2-0.2-0.4,0.1-0.6l1.2-0.6c0.3-0.2,0.8-0.2,1.1,0l3.5,1.9
			c0.3,0.2,0.2,0.4-0.1,0.6l-1.2,0.6C294.4,229.7,294,229.7,293.7,229.6z"/>
		<path class="st11" d="M299.1,232.5l-3.5-1.9c-0.3-0.2-0.2-0.4,0.1-0.6l1.2-0.6c0.3-0.2,0.8-0.2,1.1,0l3.5,1.9
			c0.3,0.2,0.2,0.4-0.1,0.6l-1.2,0.6C299.9,232.7,299.4,232.7,299.1,232.5z"/>
		<path class="st11" d="M304.5,235.5l-3.5-1.9c-0.3-0.2-0.2-0.4,0.1-0.6l1.2-0.6c0.3-0.2,0.8-0.2,1.1,0l3.5,1.9
			c0.3,0.2,0.2,0.4-0.1,0.6l-1.2,0.6C305.3,235.6,304.8,235.7,304.5,235.5z"/>
		<path class="st11" d="M309.9,238.5l-3.5-1.9c-0.3-0.2-0.2-0.4,0.1-0.6l1.2-0.6c0.3-0.2,0.8-0.2,1.1,0l3.5,1.9
			c0.3,0.2,0.2,0.4-0.1,0.6l-1.2,0.6C310.7,238.6,310.2,238.6,309.9,238.5z"/>
		<path class="st11" d="M340.1,255l-3.5-1.9c-0.3-0.2-0.2-0.4,0.1-0.6l1.2-0.6c0.3-0.2,0.8-0.2,1.1,0l3.5,1.9
			c0.3,0.2,0.2,0.4-0.1,0.6l-1.2,0.6C340.9,255.2,340.4,255.2,340.1,255z"/>
		<path class="st11" d="M345.5,258l-3.5-1.9c-0.3-0.2-0.2-0.4,0.1-0.6l1.2-0.6c0.3-0.2,0.8-0.2,1.1,0l3.5,1.9
			c0.3,0.2,0.2,0.4-0.1,0.6l-1.2,0.6C346.3,258.1,345.8,258.2,345.5,258z"/>
		<path class="st11" d="M350.9,261l-3.5-1.9c-0.3-0.2-0.2-0.4,0.1-0.6l1.2-0.6c0.3-0.2,0.8-0.2,1.1,0l3.5,1.9
			c0.3,0.2,0.2,0.4-0.1,0.6l-1.2,0.6C351.7,261.1,351.2,261.1,350.9,261z"/>
		<path class="st11" d="M356.4,263.9l-3.5-1.9c-0.3-0.2-0.2-0.4,0.1-0.6l1.2-0.6c0.3-0.2,0.8-0.2,1.1,0l3.5,1.9
			c0.3,0.2,0.2,0.4-0.1,0.6l-1.2,0.6C357.1,264.1,356.6,264.1,356.4,263.9z"/>
		<path class="st11" d="M302.8,240.7l-3.5-1.9c-0.3-0.2-0.2-0.4,0.1-0.6l3.5-1.9c0.3-0.2,0.8-0.2,1.1,0l3.5,1.9
			c0.3,0.2,0.2,0.4-0.1,0.6l-3.5,1.9C303.5,240.8,303,240.8,302.8,240.7z"/>
		<path class="st11" d="M308.2,243.7l-3.5-1.9c-0.3-0.2-0.2-0.4,0.1-0.6l3.5-1.9c0.3-0.2,0.8-0.2,1.1,0l3.5,1.9
			c0.3,0.2,0.2,0.4-0.1,0.6l-3.5,1.9C309,243.8,308.5,243.8,308.2,243.7z"/>
		<path class="st11" d="M313.7,246.7l-3.5-1.9c-0.3-0.2-0.2-0.4,0.1-0.6l3.5-1.9c0.3-0.2,0.8-0.2,1.1,0l3.5,1.9
			c0.3,0.2,0.2,0.4-0.1,0.6l-3.5,1.9C314.5,246.8,314,246.8,313.7,246.7z"/>
		<path class="st11" d="M319.1,249.7l-3.5-1.9c-0.3-0.2-0.2-0.4,0.1-0.6l3.5-1.9c0.3-0.2,0.8-0.2,1.1,0l3.5,1.9
			c0.3,0.2,0.2,0.4-0.1,0.6l-3.5,1.9C319.9,249.8,319.4,249.8,319.1,249.7z"/>
		<path class="st11" d="M324.6,252.7l-3.5-1.9c-0.3-0.2-0.2-0.4,0.1-0.6l3.5-1.9c0.3-0.2,0.8-0.2,1.1,0l3.5,1.9
			c0.3,0.2,0.2,0.4-0.1,0.6l-3.5,1.9C325.4,252.8,324.9,252.8,324.6,252.7z"/>
		<path class="st11" d="M330.1,255.6l-3.5-1.9c-0.3-0.2-0.2-0.4,0.1-0.6l3.5-1.9c0.3-0.2,0.8-0.2,1.1,0l3.5,1.9
			c0.3,0.2,0.2,0.4-0.1,0.6l-3.5,1.9C330.8,255.8,330.3,255.8,330.1,255.6z"/>
		<path class="st11" d="M335.5,258.6l-3.5-1.9c-0.3-0.2-0.2-0.4,0.1-0.6l3.5-1.9c0.3-0.2,0.8-0.2,1.1,0l3.5,1.9
			c0.3,0.2,0.2,0.4-0.1,0.6l-3.5,1.9C336.3,258.8,335.8,258.8,335.5,258.6z"/>
		<path class="st11" d="M341,261.6l-3.5-1.9c-0.3-0.2-0.2-0.4,0.1-0.6l3.5-1.9c0.3-0.2,0.8-0.2,1.1,0l3.5,1.9
			c0.3,0.2,0.2,0.4-0.1,0.6l-3.5,1.9C341.8,261.8,341.3,261.8,341,261.6z"/>
		<path class="st11" d="M346.4,264.6l-3.5-1.9c-0.3-0.2-0.2-0.4,0.1-0.6l3.5-1.9c0.3-0.2,0.8-0.2,1.1,0l3.5,1.9
			c0.3,0.2,0.2,0.4-0.1,0.6l-3.5,1.9C347.2,264.8,346.7,264.8,346.4,264.6z"/>
		<path class="st11" d="M271.5,241l-10.4-5.7c-0.3-0.2-0.2-0.4,0.1-0.6l3.5-1.9c0.3-0.2,0.8-0.2,1.1,0l10.4,5.7
			c0.3,0.2,0.2,0.4-0.1,0.6l-3.5,1.9C272.3,241.2,271.8,241.2,271.5,241z"/>
		<path class="st11" d="M338.6,277.8l-10.4-5.7c-0.3-0.2-0.2-0.4,0.1-0.6l3.5-1.9c0.3-0.2,0.8-0.2,1.1,0l10.4,5.7
			c0.3,0.2,0.2,0.4-0.1,0.6l-3.5,1.9C339.4,278,338.9,278,338.6,277.8z"/>
		<path class="st11" d="M316.8,272.5l-3.5-1.9c-0.3-0.2-0.2-0.4,0.1-0.6l4.2-2.3c0.3-0.2,0.8-0.2,1.1,0l3.5,1.9
			c0.3,0.2,0.2,0.4-0.1,0.6l-4.2,2.3C317.6,272.6,317.1,272.6,316.8,272.5z"/>
		<path class="st11" d="M277.1,250.7l-5.7-3.1c-0.3-0.2-0.2-0.4,0.1-0.6l4.2-2.3c0.3-0.2,0.8-0.2,1.1,0l5.7,3.1
			c0.3,0.2,0.2,0.4-0.1,0.6l-4.2,2.3C277.9,250.9,277.4,250.9,277.1,250.7z"/>
		<path class="st11" d="M311.5,269.6l-5.7-3.1c-0.3-0.2-0.2-0.4,0.1-0.6l4.2-2.3c0.3-0.2,0.8-0.2,1.1,0l5.7,3.1
			c0.3,0.2,0.2,0.4-0.1,0.6l-4.2,2.3C312.3,269.7,311.8,269.7,311.5,269.6z"/>
		<path class="st11" d="M285,255l-5.7-3.1c-0.3-0.2-0.2-0.4,0.1-0.6l4.2-2.3c0.3-0.2,0.8-0.2,1.1,0l5.7,3.1c0.3,0.2,0.2,0.4-0.1,0.6
			l-4.2,2.3C285.8,255.2,285.3,255.2,285,255z"/>
		<path class="st11" d="M284.8,249l24.6,13.5c0.3,0.2,0.3,0.4,0,0.6l-4.3,2.3c-0.3,0.2-0.8,0.2-1.1,0L279.4,252L284.8,249z"/>
		<path class="st11" d="M332.1,277.9l3.9,2.2c0.2,0.1,0.2,0.4-0.1,0.5l-1.7,0.9c-0.3,0.1-0.7,0.2-0.9,0l-3.9-2.2
			c-0.2-0.1-0.2-0.4,0.1-0.5l1.7-0.9C331.4,277.8,331.8,277.8,332.1,277.9z"/>
		<path class="st11" d="M326.5,274.9l3.9,2.2c0.2,0.1,0.2,0.4-0.1,0.5l-1.7,0.9c-0.3,0.1-0.7,0.2-0.9,0l-3.9-2.2
			c-0.2-0.1-0.2-0.4,0.1-0.5l1.7-0.9C325.9,274.8,326.3,274.8,326.5,274.9z"/>
		<path class="st11" d="M321.1,271.9l3.9,2.2c0.2,0.1,0.2,0.4-0.1,0.5l-1.7,0.9c-0.3,0.1-0.7,0.2-0.9,0l-3.9-2.2
			c-0.2-0.1-0.2-0.4,0.1-0.5l1.7-0.9C320.4,271.8,320.8,271.8,321.1,271.9z"/>
		<path class="st11" d="M329.6,273.2l3.9,2.2c0.2,0.1,0.2,0.4-0.1,0.5l-1.7,0.9c-0.3,0.1-0.7,0.2-0.9,0l-3.9-2.2
			c-0.2-0.1-0.2-0.4,0.1-0.5l1.7-0.9C328.9,273.1,329.3,273.1,329.6,273.2z"/>
	</g>
	
		<radialGradient id="SVGID_00000178170613922924376100000001487676455361937830_" cx="337.4313" cy="247.3853" r="223.3409" gradientTransform="matrix(0.7252 0 0 -0.6888 20.6555 328.9625)" gradientUnits="userSpaceOnUse">
		<stop  offset="0" style="stop-color:#E39A65"/>
		<stop  offset="0.4742" style="stop-color:#A92FFB"/>
		<stop  offset="0.5875" style="stop-color:#891CFB"/>
		<stop  offset="0.7262" style="stop-color:#6507FA"/>
		<stop  offset="1" style="stop-color:#3919BB"/>
	</radialGradient>
	<path style="fill:url(#SVGID_00000178170613922924376100000001487676455361937830_);" d="M387.4,267.2L283,210
		c-1.6-0.9-2.5-3.1-1.9-4.9l23.6-72.8c0.6-1.8,2.4-2.5,4-1.6l104.3,57.2c1.6,0.9,2.5,3.1,1.9,4.9l-23.6,72.8
		C390.8,267.3,389,268.1,387.4,267.2z"/>
	
		<linearGradient id="SVGID_00000102533737913695415410000002812385615115364486_" gradientUnits="userSpaceOnUse" x1="283.1703" y1="253.0513" x2="412.9576" y2="253.0513" gradientTransform="matrix(1 0 0 -1 0 452)">
		<stop  offset="0" style="stop-color:#3919BB"/>
		<stop  offset="1" style="stop-color:#6507FA"/>
	</linearGradient>
	<path style="fill:url(#SVGID_00000102533737913695415410000002812385615115364486_);" d="M386.4,264.6l-101.2-55.5
		c-1.6-0.9-2.4-3-1.8-4.7l22.6-69.6c0.6-1.7,2.3-2.4,3.9-1.6L411,188.8c1.6,0.9,2.4,3,1.8,4.7l-22.6,69.6
		C389.7,264.8,387.9,265.5,386.4,264.6z"/>
	<path class="st14" d="M386.4,264.6l-101.2-55.5c-1.6-0.9-2.4-3-1.8-4.7l22.6-69.6c0.6-1.7,2.3-2.4,3.9-1.6L411,188.8
		c1.6,0.9,2.4,3,1.8,4.7l-22.6,69.6C389.7,264.8,387.9,265.5,386.4,264.6z"/>
	<path class="st14" d="M386.4,264.6l-101.2-55.5c-1.6-0.9-2.4-3-1.8-4.7l22.6-69.6c0.6-1.7,2.3-2.4,3.9-1.6L411,188.8
		c1.6,0.9,2.4,3,1.8,4.7l-22.6,69.6C389.7,264.8,387.9,265.5,386.4,264.6z"/>
	<path class="st15" d="M380.9,243.4l-68.5-37.6c-1.1-0.6-1.6-2-1.3-3.2l15.5-47.8c0.4-1.2,1.6-1.7,2.6-1.1l68.5,37.6
		c1.1,0.6,1.6,2,1.3,3.2l-15.5,47.8C383.2,243.5,382,244,380.9,243.4z"/>
	<g>
		
			<radialGradient id="SVGID_00000014625260851020121580000008930121411725850512_" cx="255.8996" cy="295.0786" r="347.8475" gradientTransform="matrix(0.7252 0 0 -0.6888 20.6555 328.9625)" gradientUnits="userSpaceOnUse">
			<stop  offset="0" style="stop-color:#E39A65"/>
			<stop  offset="0.4742" style="stop-color:#A92FFB"/>
			<stop  offset="0.5875" style="stop-color:#891CFB"/>
			<stop  offset="0.7262" style="stop-color:#6507FA"/>
			<stop  offset="1" style="stop-color:#3919BB"/>
		</radialGradient>
		<path style="fill:url(#SVGID_00000014625260851020121580000008930121411725850512_);" d="M371.7,244.5l-68.5-37.6
			c-1.1-0.6-1.6-2-1.3-3.2l15.5-47.8c0.4-1.2,1.6-1.7,2.6-1.1l68.5,37.6c1.1,0.6,1.6,2,1.3,3.2l-15.5,47.8
			C373.9,244.6,372.8,245.1,371.7,244.5z"/>
	</g>
	<g class="st17">
		<path class="st11" d="M371.7,244.5l-68.5-37.6c-1.1-0.6-1.6-2-1.3-3.2l15.5-47.8c0.4-1.2,1.6-1.7,2.6-1.1l68.5,37.6
			c1.1,0.6,1.6,2,1.3,3.2l-15.5,47.8C373.9,244.6,372.8,245.1,371.7,244.5z"/>
	</g>
	<path class="st9" d="M388.6,192.4l-68.5-37.6c-0.7-0.4-1.4-0.3-1.9,0.1c0.3,0,0.7,0.1,1,0.2l68.5,37.6c1.1,0.6,1.6,2,1.3,3.2
		l-15.5,47.8c-0.1,0.4-0.4,0.8-0.7,1c0.7,0,1.4-0.5,1.7-1.3l15.5-47.8C390.2,194.5,389.6,193,388.6,192.4z"/>
	<path class="st14" d="M285.3,283.5c-0.9,0-1.8-0.2-2.5-0.6l0,0l-27.4-15.1c-0.7-0.4-1.1-1-1.1-1.6c0-0.7,0.6-1.5,1.5-2l14.1-7.7
		c1.7-0.9,4.3-1,5.8-0.2l27.4,15.1c0.7,0.4,1.1,1,1.1,1.6c0,0.7-0.6,1.5-1.5,2l-14.1,7.7C287.6,283.3,286.4,283.5,285.3,283.5z
		 M273.1,256.6c-1,0-2,0.2-2.9,0.7l-14.1,7.7c-0.7,0.4-1.1,0.9-1.1,1.3c0,0.5,0.4,0.8,0.7,1l27.4,15.1c1.2,0.7,3.5,0.6,5-0.2
		l14.1-7.7c0.7-0.4,1.1-0.9,1.1-1.3c0-0.5-0.4-0.8-0.7-1L275.2,257C274.6,256.7,273.9,256.6,273.1,256.6z"/>
</g>
<g>
	<g>
		<path class="st9" d="M336.7,180l-4.2-2.3c-0.4-0.2-0.6-0.7-0.5-1.2l0,0c0.1-0.4,0.6-0.6,1-0.4l4.2,2.3c0.4,0.2,0.6,0.7,0.5,1.2
			l0,0C337.6,180,337.1,180.2,336.7,180z"/>
		<path class="st9" d="M346.8,185.5l-6.2-3.4c-0.4-0.2-0.6-0.7-0.5-1.2l0,0c0.1-0.4,0.6-0.6,1-0.4l6.2,3.4c0.4,0.2,0.6,0.7,0.5,1.2
			l0,0C347.7,185.5,347.2,185.7,346.8,185.5z"/>
		<path class="st9" d="M328.2,197.9l-4.2-2.3c-0.4-0.2-0.6-0.7-0.5-1.2l0,0c0.1-0.4,0.6-0.6,1-0.4l4.2,2.3c0.4,0.2,0.6,0.7,0.5,1.2
			l0,0C329,197.9,328.6,198.1,328.2,197.9z"/>
		<path class="st9" d="M337.2,202.8l-6.2-3.4c-0.4-0.2-0.6-0.7-0.5-1.2l0,0c0.1-0.4,0.6-0.6,1-0.4l6.2,3.4c0.4,0.2,0.6,0.7,0.5,1.2
			l0,0C338,202.8,337.6,203,337.2,202.8z"/>
		<path class="st9" d="M324.1,176.8l-2.6-1.5c-0.4-0.2-0.6-0.7-0.5-1.2l0,0c0.1-0.4,0.6-0.6,1-0.4l2.6,1.5c0.4,0.2,0.6,0.7,0.5,1.2
			l0,0C324.9,176.8,324.4,177,324.1,176.8z"/>
		<path class="st9" d="M332,184.9l-8.1-4.4c-0.4-0.2-0.6-0.7-0.5-1.2l0,0c0.1-0.4,0.6-0.6,1-0.4l8.1,4.4c0.4,0.2,0.6,0.7,0.5,1.2
			l0,0C332.8,184.9,332.4,185.1,332,184.9z"/>
		<path class="st9" d="M324.6,188.3l-2.6-1.5c-0.4-0.2-0.6-0.7-0.5-1.2l0,0c0.1-0.4,0.6-0.6,1-0.4l2.6,1.5c0.4,0.2,0.6,0.7,0.5,1.2
			l0,0C325.4,188.4,325,188.6,324.6,188.3z"/>
		<path class="st9" d="M338.2,210.9l-7.1-3.9c-0.4-0.2-0.6-0.7-0.5-1.2l0,0c0.1-0.4,0.6-0.6,1-0.4l7.1,3.9c0.4,0.2,0.6,0.7,0.5,1.2
			l0,0C339,210.9,338.6,211.1,338.2,210.9z"/>
		<path class="st9" d="M321.6,194.2l-1.7-0.9c-0.4-0.2-0.6-0.7-0.5-1.2l0,0c0.1-0.4,0.6-0.6,1-0.4l1.7,0.9c0.4,0.2,0.6,0.7,0.5,1.2
			l0,0C322.4,194.3,322,194.5,321.6,194.2z"/>
		<path class="st9" d="M320,200.9l-2.1-1.2c-0.4-0.2-0.6-0.7-0.5-1.2l0,0c0.1-0.4,0.6-0.6,1-0.4l2.1,1.2c0.4,0.2,0.6,0.7,0.5,1.2
			l0,0C320.8,200.9,320.4,201.1,320,200.9z"/>
		<path class="st9" d="M328.2,205.4l-5.6-3.1c-0.4-0.2-0.6-0.7-0.5-1.2l0,0c0.1-0.4,0.6-0.6,1-0.4l5.6,3.1c0.4,0.2,0.6,0.7,0.5,1.2
			l0,0C329,205.4,328.6,205.6,328.2,205.4z"/>
		<path class="st9" d="M320.9,205.1l-4-2.2c-0.4-0.2-0.6-0.7-0.5-1.2l0,0c0.1-0.4,0.6-0.6,1-0.4l4,2.2c0.4,0.2,0.6,0.7,0.5,1.2l0,0
			C321.7,205.2,321.3,205.4,320.9,205.1z"/>
		<path class="st9" d="M344.2,214.2l-2.6-1.4c-0.4-0.2-0.6-0.7-0.5-1.2l0,0c0.1-0.4,0.6-0.6,1-0.4l2.6,1.4c0.4,0.2,0.6,0.7,0.5,1.2
			l0,0C345,214.2,344.6,214.4,344.2,214.2z"/>
		<path class="st9" d="M334.4,193.7l-7.1-3.9c-0.4-0.2-0.6-0.7-0.5-1.2l0,0c0.1-0.4,0.6-0.6,1-0.4l7.1,3.9c0.4,0.2,0.6,0.7,0.5,1.2
			l0,0C335.2,193.8,334.8,193.9,334.4,193.7z"/>
	</g>
	<path class="st18" d="M335.2,190.4l-12.3-6.8c-0.4-0.2-0.6-0.7-0.5-1.2l0,0c0.1-0.4,0.6-0.6,1-0.4l12.3,6.8
		c0.4,0.2,0.6,0.7,0.5,1.2l0,0C336.1,190.5,335.6,190.6,335.2,190.4z"/>
	<path class="st18" d="M328,194l-7.1-3.9c-0.4-0.2-0.6-0.7-0.5-1.2l0,0c0.1-0.4,0.6-0.6,1-0.4l7.1,3.9c0.4,0.2,0.6,0.7,0.5,1.2l0,0
		C328.8,194,328.4,194.2,328,194z"/>
	<path class="st18" d="M339.8,196.7l-2.6-1.4c-0.4-0.2-0.6-0.7-0.5-1.2l0,0c0.1-0.4,0.6-0.6,1-0.4l2.6,1.4c0.4,0.2,0.6,0.7,0.5,1.2
		l0,0C340.6,196.7,340.2,196.9,339.8,196.7z"/>
	<path class="st18" d="M365.9,195.9l-15.2-8.3c-0.4-0.2-0.6-0.7-0.5-1.2l0,0c0.1-0.4,0.6-0.6,1-0.4l15.2,8.3
		c0.4,0.2,0.6,0.7,0.5,1.2l0,0C366.7,196,366.3,196.1,365.9,195.9z"/>
	<path class="st19" d="M327.4,201.2l-8.5-4.7c-0.4-0.2-0.6-0.7-0.5-1.2l0,0c0.1-0.4,0.6-0.6,1-0.4l8.5,4.7c0.4,0.2,0.6,0.7,0.5,1.2
		l0,0C328.2,201.2,327.8,201.4,327.4,201.2z"/>
	<path class="st19" d="M328.7,175.5l-6.2-3.4c-0.4-0.2-0.6-0.7-0.5-1.2l0,0c0.1-0.4,0.6-0.6,1-0.4l6.2,3.4c0.4,0.2,0.6,0.7,0.5,1.2
		l0,0C329.5,175.6,329.1,175.7,328.7,175.5z"/>
	<path class="st18" d="M319.6,208.2l-7.2-4c-0.4-0.2-0.6-0.7-0.5-1.2l0,0c0.1-0.4,0.6-0.6,1-0.4l7.2,4c0.4,0.2,0.6,0.7,0.5,1.2l0,0
		C320.4,208.2,320,208.4,319.6,208.2z"/>
</g>
<g>
	<path class="st9" d="M367.6,188.5l-3.1-1.7c-0.3-0.2-0.4-0.5-0.3-0.8l0,0c0.1-0.3,0.4-0.4,0.7-0.3l3.1,1.7c0.3,0.2,0.4,0.5,0.3,0.8
		l0,0C368.2,188.5,367.9,188.7,367.6,188.5z"/>
	<path class="st9" d="M373.5,191.7l-3.1-1.7c-0.3-0.2-0.4-0.5-0.3-0.8l0,0c0.1-0.3,0.4-0.4,0.7-0.3l3.1,1.7c0.3,0.2,0.4,0.5,0.3,0.8
		l0,0C374.1,191.8,373.8,191.9,373.5,191.7z"/>
	<path class="st9" d="M379.4,195l-3.1-1.7c-0.3-0.2-0.4-0.5-0.3-0.8l0,0c0.1-0.3,0.4-0.4,0.7-0.3l3.1,1.7c0.3,0.2,0.4,0.5,0.3,0.8
		l0,0C380,195,379.7,195.1,379.4,195z"/>
	<path class="st19" d="M382.3,196.6L382.3,196.6c-0.4-0.2-0.5-0.6-0.4-0.9l0,0c0.1-0.3,0.4-0.4,0.7-0.3l0.1,0.1
		c0.3,0.2,0.4,0.5,0.3,0.8l0,0C382.9,196.6,382.6,196.7,382.3,196.6z"/>
</g>
<linearGradient id="SVGID_00000127031684786070656040000004503232423798154127_" gradientUnits="userSpaceOnUse" x1="194.688" y1="236.1912" x2="250.3629" y2="236.1912" gradientTransform="matrix(1 0 0 -1 0 452)">
	<stop  offset="0" style="stop-color:#E39A65"/>
	<stop  offset="1" style="stop-color:#E95F8D"/>
</linearGradient>
<path style="fill:url(#SVGID_00000127031684786070656040000004503232423798154127_);" d="M222.5,231c-2,0-3.9-0.5-5.7-1.4l0,0
	l-20.7-11.4c-0.9-0.5-1.4-1.4-1.4-2.4s0.5-1.9,1.4-2.4l20.7-11.4c3.5-1.9,7.8-1.9,11.3,0l20.7,11.4c0.9,0.5,1.4,1.4,1.4,2.4
	s-0.5,1.9-1.4,2.4l-20.7,11.4C226.4,230.5,224.5,231,222.5,231z M217.5,228.4c3.1,1.7,6.9,1.7,10,0l20.7-11.4
	c0.5-0.3,0.8-0.7,0.8-1.3c0-0.5-0.3-1-0.8-1.3l-20.7-11.4c-3.1-1.7-6.9-1.7-10,0l-20.7,11.4c-0.5,0.3-0.8,0.7-0.8,1.3s0.3,1,0.8,1.3
	L217.5,228.4z"/>
<g>
	<path class="st4" d="M232.5,221.6c-5.6,3.1-14.6,3.1-20.1,0s-5.6-8,0-11s14.6-3.1,20.1,0S238,218.5,232.5,221.6z"/>
	
		<radialGradient id="SVGID_00000047039268263230829390000015145622596395286183_" cx="246.7696" cy="226.902" r="165.349" gradientTransform="matrix(0.7252 0 0 -0.6888 20.6555 328.9625)" gradientUnits="userSpaceOnUse">
		<stop  offset="0" style="stop-color:#E39A65"/>
		<stop  offset="0.1528" style="stop-color:#A92FFB"/>
		<stop  offset="0.4087" style="stop-color:#3919BB"/>
		<stop  offset="0.9311" style="stop-color:#3919BB"/>
	</radialGradient>
	<path style="fill:url(#SVGID_00000047039268263230829390000015145622596395286183_);" d="M243.5,160.4H203l3.8,41.7l0,0
		c0,2.3,1.6,4.6,4.8,6.4c6.4,3.5,16.9,3.5,23.4,0c3.2-1.8,4.8-4.1,4.8-6.4L243.5,160.4z"/>
	<path class="st14" d="M243.5,160.4H203l0.6,6.9c0.9,1.1,2.2,2.2,3.8,3.2c7.8,4.9,20.5,5.8,29.3,2.3l-1.3,30.5
		c-0.1,1.3-0.5,2.6-1.5,3.6c-1.3,1.5-3.8,3.2-8.7,4.2c3.6-0.2,7.1-1.1,9.8-2.6c3.2-1.8,4.8-4.1,4.8-6.4l3-33.5l0,0L243.5,160.4z"/>
	<ellipse class="st14" cx="223.2" cy="160.4" rx="20.3" ry="11.1"/>
	<ellipse class="st14" cx="223.2" cy="156.5" rx="17.5" ry="9.6"/>
	
		<linearGradient id="SVGID_00000128482101411931629090000010585024714792405654_" gradientUnits="userSpaceOnUse" x1="201.7353" y1="293.4328" x2="244.7486" y2="293.4328" gradientTransform="matrix(1 0 0 -1 0 452)">
		<stop  offset="0" style="stop-color:#E39A65"/>
		<stop  offset="0.252" style="stop-color:#A92FFB"/>
		<stop  offset="0.5556" style="stop-color:#3919BB"/>
	</linearGradient>
	<path style="fill:url(#SVGID_00000128482101411931629090000010585024714792405654_);" d="M244.7,159.9L244.7,159.9L244.7,159.9
		C244.7,159.8,244.7,159.8,244.7,159.9l-0.4-3.8l0,0c-0.2-2.8-2.2-5.6-6.2-7.8c-8.2-4.5-21.6-4.5-29.8,0c-4,2.2-6.1,5.1-6.2,8l0,0
		l-0.4,3.3c0,0.1,0,0.2,0,0.3l0,0.1h0c-0.2,3.2,1.9,6.4,6.3,8.8c8.4,4.6,22,4.6,30.4,0C242.9,166.3,245,163.1,244.7,159.9z"/>
	
		<linearGradient id="SVGID_00000096061599722007224990000002414950862853949866_" gradientUnits="userSpaceOnUse" x1="205.7766" y1="295.5121" x2="240.7175" y2="295.5121" gradientTransform="matrix(1 0 0 -1 0 452)">
		<stop  offset="0" style="stop-color:#4F1FEC"/>
		<stop  offset="1" style="stop-color:#A92FFB"/>
	</linearGradient>
	
		<ellipse style="fill:url(#SVGID_00000096061599722007224990000002414950862853949866_);" cx="223.2" cy="156.5" rx="17.5" ry="9.6"/>
	
		<linearGradient id="SVGID_00000125562402859171543690000005707191730557614013_" gradientUnits="userSpaceOnUse" x1="204.9426" y1="295.5121" x2="239.8835" y2="295.5121" gradientTransform="matrix(1 0 0 -1 0 452)">
		<stop  offset="0" style="stop-color:#4F1FEC"/>
		<stop  offset="1" style="stop-color:#A92FFB"/>
	</linearGradient>
	
		<ellipse style="fill:url(#SVGID_00000125562402859171543690000005707191730557614013_);" cx="222.4" cy="156.5" rx="17.5" ry="9.6"/>
	<path class="st14" d="M213,151.1c6.8-3.7,17.9-3.7,24.7,0c0.1,0,0.2,0.1,0.2,0.2c-0.7-0.6-1.4-1.1-2.3-1.6
		c-6.8-3.7-17.9-3.7-24.7,0c-6.7,3.7-6.8,9.7-0.2,13.4C206.3,159.4,207,154.4,213,151.1z"/>
	
		<linearGradient id="SVGID_00000004505497009697903250000003540803741515372963_" gradientUnits="userSpaceOnUse" x1="205.7766" y1="299.8834" x2="249.835" y2="299.8834" gradientTransform="matrix(1 0 0 -1 0 452)">
		<stop  offset="0" style="stop-color:#131060"/>
		<stop  offset="0.1857" style="stop-color:#141062"/>
		<stop  offset="0.2823" style="stop-color:#19106A"/>
		<stop  offset="0.3584" style="stop-color:#221078"/>
		<stop  offset="0.4238" style="stop-color:#2E0F8B"/>
		<stop  offset="0.4823" style="stop-color:#3E0FA3"/>
		<stop  offset="0.5359" style="stop-color:#510EC2"/>
		<stop  offset="0.5847" style="stop-color:#680DE5"/>
		<stop  offset="0.6071" style="stop-color:#740DF8"/>
		<stop  offset="0.6179" style="stop-color:#7A14F0"/>
		<stop  offset="0.6826" style="stop-color:#9B3CC3"/>
		<stop  offset="0.7477" style="stop-color:#B75D9D"/>
		<stop  offset="0.8123" style="stop-color:#CC7680"/>
		<stop  offset="0.8762" style="stop-color:#DC886C"/>
		<stop  offset="0.9391" style="stop-color:#E5935F"/>
		<stop  offset="1" style="stop-color:#E8975B"/>
	</linearGradient>
	<path style="fill:url(#SVGID_00000004505497009697903250000003540803741515372963_);" d="M210.9,151.4c6.8-3.7,17.9-3.7,24.7,0
		c3,1.7,4.7,3.8,5,5.9c0.4-2.7-1.3-5.5-5-7.6c-6.8-3.7-17.9-3.7-24.7,0c-3.8,2.1-5.5,4.9-5,7.6C206.2,155.2,207.9,153,210.9,151.4z"
		/>
	
		<radialGradient id="SVGID_00000045618789844016491230000002771670174508600724_" cx="242.2933" cy="215.3755" r="108.1645" gradientTransform="matrix(0.7252 0 0 0.6888 20.6555 17.6266)" gradientUnits="userSpaceOnUse">
		<stop  offset="0" style="stop-color:#E39A65"/>
		<stop  offset="0.252" style="stop-color:#A92FFB"/>
		<stop  offset="0.7357" style="stop-color:#3919BB"/>
	</radialGradient>
	<path style="fill:url(#SVGID_00000045618789844016491230000002771670174508600724_);" d="M238.3,148.4c-8.2-4.6-21.6-4.7-29.9-0.2
		c-8.3,4.5-8.4,11.8-0.2,16.4c8.2,4.6,21.6,4.7,29.9,0.2C246.4,160.4,246.5,153,238.3,148.4z M235.6,163.3c-2.3,1.2-5,2.1-7.9,2.5
		l-0.3-1c-0.1-0.4-0.5-0.7-1-0.7h-6.3c-0.4,0-0.8,0.3-1,0.7l-0.3,1c-2.9-0.4-5.7-1.2-7.9-2.5c-6.8-3.7-6.8-9.8,0-13.5
		c6.8-3.7,17.9-3.7,24.7,0C242.4,153.5,242.4,159.5,235.6,163.3z"/>
	<g>
		<path class="st9" d="M235.6,149c-6.8-3.7-17.9-3.7-24.7,0c-3.6,2-5.3,4.6-5.1,7.1c0.2-2.3,1.9-4.6,5.1-6.4
			c6.8-3.7,17.9-3.7,24.7,0c3.2,1.8,4.9,4.1,5.1,6.4C240.9,153.6,239.2,151,235.6,149z"/>
		<path class="st9" d="M238.1,164.1c-8.3,4.5-21.7,4.4-29.9-0.2c-3.9-2.2-5.9-5-6.1-7.8c-0.2,3.1,1.9,6.2,6.1,8.5
			c8.2,4.6,21.6,4.7,29.9,0.2c4.4-2.3,6.4-5.5,6.3-8.6C244.2,159.1,242.2,162,238.1,164.1z"/>
	</g>
	<path class="st27" d="M225.1,166.3h-3.7c-0.3,0-0.5-0.2-0.5-0.4v-0.1c0-0.2,0.2-0.4,0.5-0.4h3.7c0.3,0,0.5,0.2,0.5,0.4v0.1
		C225.6,166.1,225.4,166.3,225.1,166.3z"/>
	
		<linearGradient id="SVGID_00000067954195637506045770000005860811023449209263_" gradientUnits="userSpaceOnUse" x1="220.4787" y1="286.3821" x2="226.5738" y2="286.3821" gradientTransform="matrix(1 0 0 -1 0 452)">
		<stop  offset="0" style="stop-color:#131060"/>
		<stop  offset="0.1857" style="stop-color:#141062"/>
		<stop  offset="0.2823" style="stop-color:#19106A"/>
		<stop  offset="0.3584" style="stop-color:#221078"/>
		<stop  offset="0.4238" style="stop-color:#2E0F8B"/>
		<stop  offset="0.4823" style="stop-color:#3E0FA3"/>
		<stop  offset="0.5359" style="stop-color:#510EC2"/>
		<stop  offset="0.5847" style="stop-color:#680DE5"/>
		<stop  offset="0.6071" style="stop-color:#740DF8"/>
		<stop  offset="0.6179" style="stop-color:#7A14F0"/>
		<stop  offset="0.6826" style="stop-color:#9B3CC3"/>
		<stop  offset="0.7477" style="stop-color:#B75D9D"/>
		<stop  offset="0.8123" style="stop-color:#CC7680"/>
		<stop  offset="0.8762" style="stop-color:#DC886C"/>
		<stop  offset="0.9391" style="stop-color:#E5935F"/>
		<stop  offset="1" style="stop-color:#E8975B"/>
	</linearGradient>
	<path style="fill:url(#SVGID_00000067954195637506045770000005860811023449209263_);" d="M225.1,165.3h-3.7c-0.3,0-0.5,0.2-0.5,0.4
		v0.1c0,0,0,0.1,0,0.1c0.1-0.2,0.2-0.3,0.4-0.3h3.7c0.2,0,0.4,0.1,0.4,0.3c0,0,0-0.1,0-0.1v-0.1
		C225.6,165.5,225.4,165.3,225.1,165.3z"/>
	<g>
		<path class="st18" d="M223.8,197.8c-0.5,1.6-2.2,2.6-4,2.2c-1.7-0.4-2.8-2.1-2.3-3.8c0.5-1.6,2.1-2.1,3.8-1.7
			C223.1,195,224.3,196.2,223.8,197.8z"/>
		<path class="st18" d="M226.4,194.6c-0.7,0.6-1.5,0.5-2,0c-0.6-0.5-0.6-1.3,0-1.9c0.7-0.6,1.9-0.9,2.4-0.4S227,194,226.4,194.6z"/>
		<path class="st18" d="M223,192c-0.2,0.9-0.9,1.3-1.7,1.1c-0.8-0.1-1.3-0.7-1.2-1.6s1-1.8,1.8-1.6C222.7,190,223.1,191.2,223,192z"
			/>
		<path class="st18" d="M218.8,191.6c0.3,0.8,0,1.5-0.8,1.8c-0.7,0.3-1.5,0-1.9-0.8c-0.3-0.8-0.2-2,0.6-2.3
			C217.4,190.1,218.5,190.8,218.8,191.6z"/>
	</g>
</g>
<path class="st29" d="M224.6,165.8c0,0,11.3-3.6,6.8-16c-4.6-12.4-13.5-16.2-9.9-26.1c0,0-5.6,8-0.4,18.9c5.3,10.8,6.4,9.6,6.4,14.8
	c-0.1,6.2-5.3,8.4-5.3,8.4H224.6z"/>
<path class="st29" d="M214.3,123.7c0,0-1.6-10.8,8.5-21.6c0,0-8.9,19.9-6,29.7C216.7,131.9,214.4,125.7,214.3,123.7z"/>
</svg>
